<svg xmlns="http://www.w3.org/2000/svg" viewBox="0 0 2700 2100">
  <defs>
    <style>
      .cls-1 {
        fill: #fff;
      }
    </style>
  </defs>
  <g id="A">
    <line class="cls-1" x1="300"/>
    <line class="cls-1" x1="300"/>
    <line class="cls-1" x1="600" x2="300"/>
    <line class="cls-1" x1="900" x2="600"/>
    <line class="cls-1" x1="1200" x2="900"/>
    <line class="cls-1" x1="1500" x2="1200"/>
    <line class="cls-1" x1="1800" x2="1500"/>
    <line class="cls-1" x1="2100" x2="1800"/>
    <line class="cls-1" x1="2400" x2="2100"/>
    <rect width="300" height="300"/>
    <rect x="300" width="300" height="300"/>
    <rect x="600" width="300" height="300"/>
    <rect x="900" width="300" height="300"/>
    <rect x="1200" width="300" height="300"/>
    <rect x="1500" width="300" height="300"/>
    <rect x="1800" width="300" height="300"/>
    <rect x="2100" width="300" height="300"/>
    <line class="cls-1" x1="2100" y1="1800" x2="2100" y2="2100"/>
    <rect x="2100" y="1800" width="300" height="300"/>
    <line class="cls-1" x1="2700" x2="2400"/>
    <rect x="2400" width="300" height="300"/>
    <rect x="2400" y="300" width="300" height="300"/>
    <rect x="2400" y="600" width="300" height="300"/>
    <rect x="2400" y="900" width="300" height="300"/>
    <rect x="2400" y="1200" width="300" height="300"/>
    <rect x="2400" y="1500" width="300" height="300"/>
    <rect x="2400" y="1800" width="300" height="300"/>
    <path class="cls-1" d="M4500,600" transform="translate(-1800 -600)"/>
    <path class="cls-1" d="M4500,600" transform="translate(-1800 -600)"/>
    <path class="cls-1" d="M4500,900" transform="translate(-1800 -600)"/>
    <path class="cls-1" d="M4500,1200" transform="translate(-1800 -600)"/>
    <path class="cls-1" d="M4500,1500" transform="translate(-1800 -600)"/>
    <path class="cls-1" d="M4500,1500" transform="translate(-1800 -600)"/>
    <path class="cls-1" d="M4500,1800" transform="translate(-1800 -600)"/>
    <path class="cls-1" d="M4500,2100" transform="translate(-1800 -600)"/>
    <path class="cls-1" d="M4500,2400" transform="translate(-1800 -600)"/>
    <path class="cls-1" d="M4500,2400" transform="translate(-1800 -600)"/>
    <path class="cls-1" d="M4500,2700" transform="translate(-1800 -600)"/>
  </g>
  <g id="k">
    <path class="cls-1" d="M1800,900" transform="translate(-1800 -600)"/>
    <path class="cls-1" d="M2100,900" transform="translate(-1800 -600)"/>
    <path class="cls-1" d="M2100,900" transform="translate(-1800 -600)"/>
    <path class="cls-1" d="M2100,900" transform="translate(-1800 -600)"/>
    <path class="cls-1" d="M2100,900" transform="translate(-1800 -600)"/>
    <path class="cls-1" d="M2400,900" transform="translate(-1800 -600)"/>
    <path class="cls-1" d="M2400,900" transform="translate(-1800 -600)"/>
    <path class="cls-1" d="M2700,900" transform="translate(-1800 -600)"/>
    <line class="cls-1" x1="1200" y1="300" x2="900" y2="300"/>
    <path class="cls-1" d="M3000,900" transform="translate(-1800 -600)"/>
    <path class="cls-1" d="M3300,900" transform="translate(-1800 -600)"/>
    <path class="cls-1" d="M3600,900" transform="translate(-1800 -600)"/>
    <path class="cls-1" d="M3900,900" transform="translate(-1800 -600)"/>
    <path class="cls-1" d="M3900,900" transform="translate(-1800 -600)"/>
    <rect x="900" y="300" width="300" height="300"/>
    <rect width="300" height="300"/>
    <rect x="300" width="300" height="300"/>
    <rect x="600" width="300" height="300"/>
    <rect x="900" width="300" height="300"/>
    <rect x="1200" width="300" height="300"/>
    <path class="cls-1" d="M3900,900" transform="translate(-1800 -600)"/>
    <path class="cls-1" d="M3900,1200" transform="translate(-1800 -600)"/>
    <rect y="600" width="300" height="300"/>
    <rect x="300" y="600" width="300" height="300"/>
    <rect x="600" y="600" width="300" height="300"/>
    <rect x="900" y="600" width="300" height="300"/>
    <rect x="1200" y="600" width="300" height="300"/>
    <rect x="1500" y="600" width="300" height="300"/>
    <rect x="1800" y="600" width="300" height="300"/>
    <path class="cls-1" d="M3900,1200" transform="translate(-1800 -600)"/>
    <path class="cls-1" d="M3900,1500" transform="translate(-1800 -600)"/>
    <rect x="600" y="900" width="300" height="300"/>
    <rect x="900" y="900" width="300" height="300"/>
    <rect x="1200" y="900" width="300" height="300"/>
    <path class="cls-1" d="M3900,1500" transform="translate(-1800 -600)"/>
    <path class="cls-1" d="M3900,1800" transform="translate(-1800 -600)"/>
    <path class="cls-1" d="M3900,1800" transform="translate(-1800 -600)"/>
    <path class="cls-1" d="M3900,2100" transform="translate(-1800 -600)"/>
    <g>
      <rect x="300" y="1200" width="300" height="300"/>
      <rect x="1500" y="1200" width="300" height="300"/>
      <rect x="300" y="1500" width="300" height="300"/>
      <rect x="1500" y="1500" width="300" height="300"/>
    </g>
    <path class="cls-1" d="M3900,2100" transform="translate(-1800 -600)"/>
    <rect x="600" y="1800" width="300" height="300"/>
    <rect x="900" y="1800" width="300" height="300"/>
    <rect x="1200" y="1800" width="300" height="300"/>
  </g>
</svg>
