<svg id="Vowel_-_am" data-name="Vowel - am" xmlns="http://www.w3.org/2000/svg" viewBox="0 0 1500 2100">
  <defs>
    <style>
      .cls-1 {
        fill: #fff;
      }
    </style>
  </defs>
  <rect class="cls-1" y="300" width="300" height="300"/>
  <rect class="cls-1" y="600" width="300" height="300"/>
  <rect class="cls-1" y="900" width="300" height="300"/>
  <rect class="cls-1" y="1200" width="300" height="300"/>
  <rect class="cls-1" y="1500" width="300" height="300"/>
  <rect class="cls-1" x="300" width="300" height="300"/>
  <rect class="cls-1" x="300" y="1800" width="300" height="300"/>
  <rect class="cls-1" x="600" width="300" height="300"/>
  <rect class="cls-1" x="600" y="1800" width="300" height="300"/>
  <rect class="cls-1" x="1200" y="300" width="300" height="300"/>
  <rect class="cls-1" x="1200" y="600" width="300" height="300"/>
  <rect class="cls-1" x="1200" y="900" width="300" height="300"/>
  <rect class="cls-1" x="1200" y="1200" width="300" height="300"/>
  <rect class="cls-1" x="1200" y="1500" width="300" height="300"/>
  <rect y="300" width="300" height="300"/>
  <rect y="600" width="300" height="300"/>
  <rect y="900" width="300" height="300"/>
  <rect y="1200" width="300" height="300"/>
  <rect y="1500" width="300" height="300"/>
  <rect x="300" width="300" height="300"/>
  <rect x="300" y="1800" width="300" height="300"/>
  <rect x="600" width="300" height="300"/>
  <rect x="600" y="1800" width="300" height="300"/>
  <rect x="900" width="300" height="300"/>
  <rect x="1200" y="300" width="300" height="300"/>
  <rect x="1200" y="600" width="300" height="300"/>
  <rect x="1200" y="900" width="300" height="300"/>
  <rect x="1200" y="1200" width="300" height="300"/>
  <rect x="1200" y="1500" width="300" height="300"/>
  <rect x="900" y="1800" width="300" height="300"/>
</svg>
