<svg id="v" xmlns="http://www.w3.org/2000/svg" viewBox="0 0 2100 2100">
  <rect x="1200" width="300" height="300"/>
  <rect x="1200" y="600" width="300" height="300"/>
  <rect x="1500" y="600" width="300" height="300"/>
  <rect x="1200" y="300" width="300" height="300"/>
  <rect x="900" y="1500" width="300" height="300"/>
  <rect x="1200" y="1800" width="300" height="300"/>
  <rect x="1500" width="300" height="300"/>
  <rect x="1800" y="300" width="300" height="300"/>
  <rect x="1800" y="900" width="300" height="300"/>
  <rect x="1800" y="600" width="300" height="300"/>
  <rect y="1200" width="300" height="300"/>
  <rect x="300" y="1200" width="300" height="300"/>
  <rect y="1500" width="300" height="300"/>
  <rect x="1800" y="1200" width="300" height="300"/>
  <rect x="1800" y="1500" width="300" height="300"/>
  <rect x="600" y="1800" width="300" height="300"/>
  <rect x="300" y="1800" width="300" height="300"/>
  <rect x="1500" y="1800" width="300" height="300"/>
</svg>
