<svg xmlns="http://www.w3.org/2000/svg" viewBox="0 0 2100 900">
  <defs>
    <style>
      .cls-1 {
        fill: #fff;
      }
    </style>
  </defs>
  <g id="a">
    <line class="cls-1" x1="300" y1="600" y2="600"/>
    <line class="cls-1" x1="1800" x2="1800" y2="300"/>
    <path class="cls-1" d="M3900,0" transform="translate(-1800)"/>
    <path class="cls-1" d="M3900,300" transform="translate(-1800)"/>
    <line class="cls-1" x1="300" y1="600" y2="600"/>
    <line class="cls-1" x1="600" y1="600" x2="300" y2="600"/>
    <line class="cls-1" x1="900" y1="600" x2="600" y2="600"/>
    <line class="cls-1" x1="1200" y1="600" x2="900" y2="600"/>
    <line class="cls-1" x1="1500" y1="600" x2="1200" y2="600"/>
    <rect x="1800" y="300" width="300" height="300"/>
    <path class="cls-1" d="M3900,300" transform="translate(-1800)"/>
    <path class="cls-1" d="M3900,600" transform="translate(-1800)"/>
    <rect x="1500" y="600" width="300" height="300"/>
    <rect x="1800" y="600" width="300" height="300"/>
    <path class="cls-1" d="M3900,600" transform="translate(-1800)"/>
    <path class="cls-1" d="M3900,900" transform="translate(-1800)"/>
    <path class="cls-1" d="M2100,900" transform="translate(-1800)"/>
    <path class="cls-1" d="M2100,900" transform="translate(-1800)"/>
    <path class="cls-1" d="M3000,900" transform="translate(-1800)"/>
    <path class="cls-1" d="M3300,900" transform="translate(-1800)"/>
    <path class="cls-1" d="M3900,900" transform="translate(-1800)"/>
  </g>
  <g id="e">
    <line class="cls-1" x1="300" y1="600" y2="600"/>
    <line class="cls-1" x1="1800" x2="1800" y2="300"/>
    <rect x="1500" width="300" height="300"/>
    <rect x="1200" y="300" width="300" height="300"/>
    <rect x="1200" width="300" height="300"/>
    <path class="cls-1" d="M3900,0" transform="translate(-1800)"/>
    <path class="cls-1" d="M3900,300" transform="translate(-1800)"/>
    <line class="cls-1" x1="300" y1="600" y2="600"/>
    <line class="cls-1" x1="600" y1="600" x2="300" y2="600"/>
    <line class="cls-1" x1="900" y1="600" x2="600" y2="600"/>
    <line class="cls-1" x1="1200" y1="600" x2="900" y2="600"/>
    <line class="cls-1" x1="1500" y1="600" x2="1200" y2="600"/>
    <rect x="1800" y="300" width="300" height="300"/>
    <path class="cls-1" d="M3900,300" transform="translate(-1800)"/>
    <path class="cls-1" d="M3900,600" transform="translate(-1800)"/>
    <rect x="1500" y="600" width="300" height="300"/>
    <rect x="1800" y="600" width="300" height="300"/>
    <path class="cls-1" d="M3900,600" transform="translate(-1800)"/>
    <path class="cls-1" d="M3900,900" transform="translate(-1800)"/>
    <path class="cls-1" d="M2100,900" transform="translate(-1800)"/>
    <path class="cls-1" d="M2100,900" transform="translate(-1800)"/>
    <path class="cls-1" d="M3000,900" transform="translate(-1800)"/>
    <path class="cls-1" d="M3300,900" transform="translate(-1800)"/>
    <path class="cls-1" d="M3900,900" transform="translate(-1800)"/>
  </g>
</svg>
