<svg xmlns="http://www.w3.org/2000/svg" viewBox="0 0 2100 2700"><defs><style>.cls-1{fill:#fff;}</style></defs><g id="i"><rect x="300" width="300" height="300"/><rect x="600" width="300" height="300"/><rect x="900" width="300" height="300"/><rect x="300" y="300" width="300" height="300"/><rect x="900" y="300" width="300" height="300"/><rect x="300" y="600" width="300" height="300"/><rect x="600" y="600" width="300" height="300"/><rect x="900" y="600" width="300" height="300"/></g><g id="k"><path class="cls-1" d="M1800,900" transform="translate(-1800)"/><path class="cls-1" d="M2100,900" transform="translate(-1800)"/><path class="cls-1" d="M2100,900" transform="translate(-1800)"/><path class="cls-1" d="M2100,900" transform="translate(-1800)"/><path class="cls-1" d="M2100,900" transform="translate(-1800)"/><path class="cls-1" d="M2400,900" transform="translate(-1800)"/><path class="cls-1" d="M2400,900" transform="translate(-1800)"/><path class="cls-1" d="M2700,900" transform="translate(-1800)"/><line class="cls-1" x1="1200" y1="900" x2="900" y2="900"/><path class="cls-1" d="M3000,900" transform="translate(-1800)"/><path class="cls-1" d="M3300,900" transform="translate(-1800)"/><path class="cls-1" d="M3600,900" transform="translate(-1800)"/><path class="cls-1" d="M3900,900" transform="translate(-1800)"/><path class="cls-1" d="M3900,900" transform="translate(-1800)"/><rect x="900" y="900" width="300" height="300"/><rect y="600" width="300" height="300"/><rect x="300" y="600" width="300" height="300"/><rect x="600" y="600" width="300" height="300"/><rect x="900" y="600" width="300" height="300"/><rect x="1200" y="600" width="300" height="300"/><path class="cls-1" d="M3900,900" transform="translate(-1800)"/><path class="cls-1" d="M3900,1200" transform="translate(-1800)"/><rect y="1200" width="300" height="300"/><rect x="300" y="1200" width="300" height="300"/><rect x="600" y="1200" width="300" height="300"/><rect x="900" y="1200" width="300" height="300"/><rect x="1200" y="1200" width="300" height="300"/><rect x="1500" y="1200" width="300" height="300"/><rect x="1800" y="1200" width="300" height="300"/><path class="cls-1" d="M3900,1200" transform="translate(-1800)"/><path class="cls-1" d="M3900,1500" transform="translate(-1800)"/><rect x="600" y="1500" width="300" height="300"/><rect x="900" y="1500" width="300" height="300"/><rect x="1200" y="1500" width="300" height="300"/><path class="cls-1" d="M3900,1500" transform="translate(-1800)"/><path class="cls-1" d="M3900,1800" transform="translate(-1800)"/><path class="cls-1" d="M3900,1800" transform="translate(-1800)"/><path class="cls-1" d="M3900,2100" transform="translate(-1800)"/><rect x="300" y="1800" width="300" height="300"/><rect x="1500" y="1800" width="300" height="300"/><rect x="300" y="2100" width="300" height="300"/><rect x="1500" y="2100" width="300" height="300"/><path class="cls-1" d="M3900,2100" transform="translate(-1800)"/><rect x="600" y="2400" width="300" height="300"/><rect x="900" y="2400" width="300" height="300"/><rect x="1200" y="2400" width="300" height="300"/></g></svg>