<svg id="rupee" xmlns="http://www.w3.org/2000/svg" viewBox="0 0 3280 3000"><defs><style>.cls-1{fill:#cbd8c7;}</style></defs><rect class="cls-1" x="600" y="2400" width="300" height="300"/><rect class="cls-1" x="900" y="2700" width="300" height="300"/><rect class="cls-1" x="600" y="600" width="300" height="300"/><rect class="cls-1" x="300" width="300" height="300"/><rect class="cls-1" x="600" y="900" width="300" height="300"/><rect class="cls-1" x="300" y="900" width="300" height="300"/><rect class="cls-1" width="300" height="300"/><rect class="cls-1" x="1200" width="300" height="300"/><rect class="cls-1" x="300" y="2100" width="300" height="300"/><rect class="cls-1" x="600" y="1200" width="300" height="300"/><rect class="cls-1" y="1800" width="300" height="300"/><rect class="cls-1" x="300" y="1500" width="300" height="300"/><rect class="cls-1" y="1500" width="300" height="300"/><rect class="cls-1" x="900" y="900" width="300" height="300"/><rect class="cls-1" y="900" width="300" height="300"/><rect class="cls-1" x="300" y="300" width="300" height="300"/><rect class="cls-1" x="600" width="300" height="300"/><rect class="cls-1" x="900" width="300" height="300"/><rect class="cls-1" x="1200" y="900" width="300" height="300"/><rect class="cls-1" x="2380" y="2400" width="300" height="300"/><rect class="cls-1" x="2680" y="2700" width="300" height="300"/><rect class="cls-1" x="2380" y="600" width="300" height="300"/><rect class="cls-1" x="2080" width="300" height="300"/><rect class="cls-1" x="2380" y="900" width="300" height="300"/><rect class="cls-1" x="2080" y="900" width="300" height="300"/><rect class="cls-1" x="1780" width="300" height="300"/><rect class="cls-1" x="2980" width="300" height="300"/><rect class="cls-1" x="2080" y="2100" width="300" height="300"/><rect class="cls-1" x="2380" y="1200" width="300" height="300"/><rect class="cls-1" x="1780" y="1800" width="300" height="300"/><rect class="cls-1" x="2080" y="1500" width="300" height="300"/><rect class="cls-1" x="1780" y="1500" width="300" height="300"/><rect class="cls-1" x="2680" y="900" width="300" height="300"/><rect class="cls-1" x="1780" y="900" width="300" height="300"/><rect class="cls-1" x="2080" y="300" width="300" height="300"/><rect class="cls-1" x="2380" width="300" height="300"/><rect class="cls-1" x="2680" width="300" height="300"/><rect class="cls-1" x="2980" y="900" width="300" height="300"/></svg>