<svg id="g" xmlns="http://www.w3.org/2000/svg" viewBox="0 0 1800 2100"><defs><style>.cls-1{fill:#fff;}</style></defs><rect x="600" y="300" width="300" height="300"/><rect x="900" y="300" width="300" height="300"/><rect x="1200" y="300" width="300" height="300"/><rect x="300" y="600" width="300" height="300"/><rect x="1500" y="600" width="300" height="300"/><rect x="300" y="900" width="300" height="300"/><rect x="1500" y="900" width="300" height="300"/><rect x="300" y="1200" width="300" height="300"/><rect x="1500" y="1200" width="300" height="300"/><rect x="300" y="1500" width="300" height="300"/><rect x="1500" y="1500" width="300" height="300"/><rect x="300" y="1800" width="300" height="300"/><rect x="1500" y="1800" width="300" height="300"/><line class="cls-1" x1="300"/><line class="cls-1" x1="300"/><line class="cls-1" x1="600" x2="300"/><line class="cls-1" x1="900" x2="600"/><line class="cls-1" x1="1200" x2="900"/><line class="cls-1" x1="1500" x2="1200"/><line class="cls-1" x1="1800" x2="1500"/><rect width="300" height="300"/><rect x="300" width="300" height="300"/><rect x="600" width="300" height="300"/><rect x="900" width="300" height="300"/><rect x="1200" width="300" height="300"/><rect x="1500" width="300" height="300"/></svg>