<svg xmlns="http://www.w3.org/2000/svg" viewBox="0 0 1800 2700">
  <defs>
    <style>
      .cls-1 {
        fill: #fff;
      }
    </style>
  </defs>
  <g id="i">
    <rect x="300" width="300" height="300"/>
    <rect x="600" width="300" height="300"/>
    <rect x="900" width="300" height="300"/>
    <rect x="300" y="300" width="300" height="300"/>
    <rect x="900" y="300" width="300" height="300"/>
    <rect x="300" y="600" width="300" height="300"/>
    <rect x="600" y="600" width="300" height="300"/>
    <rect x="900" y="600" width="300" height="300"/>
  </g>
  <g id="g">
    <rect x="600" y="900" width="300" height="300"/>
    <rect x="900" y="900" width="300" height="300"/>
    <rect x="1200" y="900" width="300" height="300"/>
    <rect x="300" y="1200" width="300" height="300"/>
    <rect x="1500" y="1200" width="300" height="300"/>
    <rect x="300" y="1500" width="300" height="300"/>
    <rect x="1500" y="1500" width="300" height="300"/>
    <rect x="300" y="1800" width="300" height="300"/>
    <rect x="1500" y="1800" width="300" height="300"/>
    <rect x="300" y="2100" width="300" height="300"/>
    <rect x="1500" y="2100" width="300" height="300"/>
    <rect x="300" y="2400" width="300" height="300"/>
    <rect x="1500" y="2400" width="300" height="300"/>
    <line class="cls-1" x1="300" y1="600" y2="600"/>
    <line class="cls-1" x1="300" y1="600" y2="600"/>
    <line class="cls-1" x1="600" y1="600" x2="300" y2="600"/>
    <line class="cls-1" x1="900" y1="600" x2="600" y2="600"/>
    <line class="cls-1" x1="1200" y1="600" x2="900" y2="600"/>
    <line class="cls-1" x1="1500" y1="600" x2="1200" y2="600"/>
    <line class="cls-1" x1="1800" y1="600" x2="1500" y2="600"/>
    <rect y="600" width="300" height="300"/>
    <rect x="300" y="600" width="300" height="300"/>
    <rect x="600" y="600" width="300" height="300"/>
    <rect x="900" y="600" width="300" height="300"/>
    <rect x="1200" y="600" width="300" height="300"/>
    <rect x="1500" y="600" width="300" height="300"/>
  </g>
</svg>
