<svg id="cut" xmlns="http://www.w3.org/2000/svg" viewBox="0 0 2100 1500">
  <defs>
    <style>
      .cls-1 {
        fill: #fff;
      }
    </style>
  </defs>
  <line class="cls-1" x1="600" x2="600" y2="300"/>
  <rect x="1800" y="600" width="300" height="300"/>
  <rect x="1200" y="600" width="300" height="300"/>
  <rect x="1500" y="600" width="300" height="300"/>
  <rect x="900" y="600" width="300" height="300"/>
  <path class="cls-1" d="M3900,0" transform="translate(-3000)"/>
  <path class="cls-1" d="M3900,300" transform="translate(-3000)"/>
  <line class="cls-1" x1="300" y1="600" y2="600"/>
  <rect x="1800" y="900" width="300" height="300"/>
  <rect x="1800" y="1200" width="300" height="300"/>
  <rect x="1200" width="300" height="300"/>
  <rect x="1200" y="300" width="300" height="300"/>
  <rect x="1200" y="900" width="300" height="300"/>
  <rect x="1200" y="1200" width="300" height="300"/>
  <rect x="1500" y="1200" width="300" height="300"/>
  <path class="cls-1" d="M3900,300" transform="translate(-3000)"/>
  <path class="cls-1" d="M3900,600" transform="translate(-3000)"/>
  <rect x="300" y="600" width="300" height="300"/>
  <rect x="600" y="600" width="300" height="300"/>
  <path class="cls-1" d="M3900,600" transform="translate(-3000)"/>
  <path class="cls-1" d="M3900,900" transform="translate(-3000)"/>
  <path class="cls-1" d="M3000,900" transform="translate(-3000)"/>
  <path class="cls-1" d="M3300,900" transform="translate(-3000)"/>
  <path class="cls-1" d="M3900,900" transform="translate(-3000)"/>
</svg>
