<svg id="Number_-_two" data-name="Number - two" xmlns="http://www.w3.org/2000/svg" viewBox="0 0 2400 1500">
  <defs>
    <style>
      .cls-1 {
        fill: #fff;
      }
    </style>
  </defs>
  <rect class="cls-1" y="1200" width="300" height="300"/>
  <rect class="cls-1" x="1200" y="1200" width="300" height="300"/>
  <rect y="1200" width="300" height="300"/>
  <rect x="300" y="1200" width="300" height="300"/>
  <rect x="600" y="1200" width="300" height="300"/>
  <rect x="900" y="1200" width="300" height="300"/>
  <rect x="1200" y="1200" width="300" height="300"/>
  <rect x="1500" y="1200" width="300" height="300"/>
  <rect x="1800" y="1200" width="300" height="300"/>
  <rect x="2100" y="1200" width="300" height="300"/>
  <rect x="2100" y="900" width="300" height="300"/>
  <rect x="2100" y="600" width="300" height="300"/>
  <rect x="2100" y="300" width="300" height="300"/>
  <rect x="1800" width="300" height="300"/>
  <rect x="1500" width="300" height="300"/>
  <rect x="1500" y="300" width="300" height="300"/>
  <rect x="1500" y="600" width="300" height="300"/>
  <rect x="1800" y="600" width="300" height="300"/>
</svg>
