<svg id="Number_-_nine" data-name="Number - nine" xmlns="http://www.w3.org/2000/svg" viewBox="0 0 2400 2100">
  <defs>
    <style>
      .cls-1 {
        fill: #fff;
      }
    </style>
  </defs>
  <rect class="cls-1" y="1800" width="300" height="300"/>
  <rect class="cls-1" x="1200" width="300" height="300"/>
  <rect y="1800" width="300" height="300"/>
  <rect x="300" y="1800" width="300" height="300"/>
  <rect x="600" y="1800" width="300" height="300"/>
  <rect x="900" width="300" height="300"/>
  <rect x="1200" width="300" height="300"/>
  <rect x="1500" width="300" height="300"/>
  <rect x="1800" width="300" height="300"/>
  <rect x="2100" width="300" height="300"/>
  <rect y="1500" width="300" height="300"/>
  <rect x="600" y="1200" width="300" height="300"/>
  <rect x="600" y="900" width="300" height="300"/>
  <rect x="300" y="600" width="300" height="300"/>
  <rect y="300" width="300" height="300"/>
  <rect x="600" width="300" height="300"/>
  <rect x="300" width="300" height="300"/>
  <rect width="300" height="300"/>
  <rect y="600" width="300" height="300"/>
  <rect y="900" width="300" height="300"/>
  <rect y="1200" width="300" height="300"/>
  <rect x="300" y="1200" width="300" height="300"/>
</svg>
