<svg id="Vowel_-_aha" data-name="Vowel - aha" xmlns="http://www.w3.org/2000/svg" viewBox="0 0 3600 2100">
  <defs>
    <style>
      .cls-1 {
        fill: #fff;
      }
    </style>
  </defs>
  <rect width="300" height="300"/>
  <rect y="300" width="300" height="300"/>
  <rect y="600" width="300" height="300"/>
  <rect y="900" width="300" height="300"/>
  <rect y="1200" width="300" height="300"/>
  <rect y="1500" width="300" height="300"/>
  <rect y="1800" width="300" height="300"/>
  <rect x="300" width="300" height="300"/>
  <rect x="600" width="300" height="300"/>
  <rect x="1200" width="300" height="300"/>
  <rect x="1500" width="300" height="300"/>
  <rect x="1800" width="300" height="300"/>
  <rect class="cls-1" x="2400" width="300" height="300"/>
  <rect x="600" y="300" width="300" height="300"/>
  <rect x="1200" y="300" width="300" height="300"/>
  <rect x="1800" y="300" width="300" height="300"/>
  <rect class="cls-1" x="2400" y="300" width="300" height="300"/>
  <rect x="1200" y="600" width="300" height="300"/>
  <rect x="1800" y="600" width="300" height="300"/>
  <rect class="cls-1" x="2400" y="600" width="300" height="300"/>
  <rect x="600" y="900" width="300" height="300"/>
  <rect x="900" y="900" width="300" height="300"/>
  <rect x="1200" y="900" width="300" height="300"/>
  <rect x="1800" y="900" width="300" height="300"/>
  <rect x="1800" y="1200" width="300" height="300"/>
  <rect class="cls-1" x="2400" y="1200" width="300" height="300"/>
  <rect x="1800" y="1500" width="300" height="300"/>
  <rect class="cls-1" x="2400" y="1500" width="300" height="300"/>
  <rect x="300" y="1800" width="300" height="300"/>
  <rect x="600" y="1800" width="300" height="300"/>
  <rect x="900" y="1800" width="300" height="300"/>
  <rect x="1200" y="1800" width="300" height="300"/>
  <rect x="1500" y="1800" width="300" height="300"/>
  <rect x="1800" y="1800" width="300" height="300"/>
  <rect class="cls-1" x="2400" y="1800" width="300" height="300"/>
  <rect class="cls-1" x="2700" width="300" height="300"/>
  <rect x="2700" y="600" width="300" height="300"/>
  <rect x="2700" y="1200" width="300" height="300"/>
  <rect class="cls-1" x="2700" y="1800" width="300" height="300"/>
  <rect class="cls-1" x="3000" width="300" height="300"/>
  <rect x="3000" y="600" width="300" height="300"/>
  <rect x="3000" y="1200" width="300" height="300"/>
  <rect class="cls-1" x="3000" y="1800" width="300" height="300"/>
  <rect class="cls-1" x="3300" width="300" height="300"/>
  <rect class="cls-1" x="3300" y="300" width="300" height="300"/>
  <rect class="cls-1" x="3300" y="600" width="300" height="300"/>
  <rect class="cls-1" x="3300" y="1200" width="300" height="300"/>
  <rect class="cls-1" x="3300" y="1500" width="300" height="300"/>
  <rect class="cls-1" x="3300" y="1800" width="300" height="300"/>
  <rect x="2400" width="300" height="300"/>
  <rect x="2400" y="300" width="300" height="300"/>
  <rect x="2400" y="600" width="300" height="300"/>
  <rect x="2400" y="1200" width="300" height="300"/>
  <rect x="2400" y="1500" width="300" height="300"/>
  <rect x="2400" y="1800" width="300" height="300"/>
  <rect x="2700" width="300" height="300"/>
  <rect x="2700" y="1800" width="300" height="300"/>
  <rect x="3000" width="300" height="300"/>
  <rect x="3000" y="1800" width="300" height="300"/>
  <rect x="3300" width="300" height="300"/>
  <rect x="3300" y="300" width="300" height="300"/>
  <rect x="3300" y="600" width="300" height="300"/>
  <rect x="3300" y="1200" width="300" height="300"/>
  <rect x="3300" y="1500" width="300" height="300"/>
  <rect x="3300" y="1800" width="300" height="300"/>
</svg>
