<svg xmlns="http://www.w3.org/2000/svg" width="625" height="469" viewBox="0 0 625 469">
  <defs>
    <style>
      .cls-1 {
        fill: #2c2c2c;
        fill-rule: evenodd;
      }
    </style>
  </defs>
  <path id="UÁågÉÃeï" class="cls-1" d="M54.768,187.85v-16.5h-16.5v16.5h16.5Zm16.5,0v-16.5h-16.5v16.5h16.5Zm16.5,0v-16.5h-16.5v16.5h16.5Zm-49.5,16.5v-16.5h-16.5v16.5h16.5Zm66,0v-16.5h-16.5v16.5h16.5Zm-66,16.5v-16.5h-16.5v16.5h16.5Zm66,0v-16.5h-16.5v16.5h16.5Zm-66,16.5v-16.5h-16.5v16.5h16.5Zm66,0v-16.5h-16.5v16.5h16.5Zm-66,16.5v-16.5h-16.5v16.5h16.5Zm66,0v-16.5h-16.5v16.5h16.5Zm-66,16.5v-16.5h-16.5v16.5h16.5Zm66,0v-16.5h-16.5v16.5h16.5Zm-82.5-99v-16.5H5.268v16.5h16.5Zm16.5,0v-16.5h-16.5v16.5h16.5Zm16.5,0v-16.5h-16.5v16.5h16.5Zm16.5,0v-16.5h-16.5v16.5h16.5Zm16.5,0v-16.5h-16.5v16.5h16.5Zm16.5,0v-16.5h-16.5v16.5h16.5Zm-1.21.55V155.4h-16.5v16.5h16.5Zm16.5,0V155.4h-16.5v16.5h16.5Zm16.5,0V155.4h-16.5v16.5h16.5Zm0,99V254.4h-16.5v16.5h16.5Zm16.5-99V155.4h-16.5v16.5h16.5Zm0,16.5V171.9h-16.5v16.5h16.5Zm0,16.5V188.4h-16.5v16.5h16.5Zm0,16.5V204.9h-16.5v16.5h16.5Zm0,16.5V221.4h-16.5v16.5h16.5Zm0,16.5V237.9h-16.5v16.5h16.5Zm0,16.5V254.4h-16.5v16.5h16.5Zm35.2-5.61v-8.25h-8.25v8.25h8.25Zm0-8.25v-8.25h-8.25v8.25h8.25Zm8.25,0v-8.25h-8.25v8.25h8.25Zm-24.75,16.5v-8.25h-8.25v8.25h8.25Zm-8.25,0v-8.25h-8.25v8.25h8.25Zm24.75,0v-8.25h-8.25v8.25h8.25Zm-16.5,8.25v-8.25h-8.25v8.25h8.25Zm16.5,0v-8.25h-8.25v8.25h8.25Zm-16.5,8.25v-8.25h-8.25v8.25h8.25Zm8.25,0v-8.25h-8.25v8.25h8.25Zm8.25,0v-8.25h-8.25v8.25h8.25ZM253.1,171.9V155.4H236.6v16.5h16.5Zm-16.5,0V155.4H220.1v16.5h16.5Zm-16.5,0V155.4H203.6v16.5h16.5Zm49.5,0V155.4H253.1v16.5h16.5Zm16.5,0V155.4H269.6v16.5h16.5Zm-33,99V254.4H236.6v16.5h16.5Zm16.5,0V254.4H253.1v16.5h16.5Zm16.5,0V254.4H269.6v16.5h16.5Zm-49.5-66V188.4H220.1v16.5h16.5Zm0-16.5V171.9H220.1v16.5h16.5Zm66,16.5V188.4H286.1v16.5h16.5Zm0-16.5V171.9H286.1v16.5h16.5Zm-66,33V204.9H220.1v16.5h16.5Zm66,0V204.9H286.1v16.5h16.5Zm-66,16.5V221.4H220.1v16.5h16.5Zm66,0V221.4H286.1v16.5h16.5Zm-66,16.5V237.9H220.1v16.5h16.5Zm66,0V237.9H286.1v16.5h16.5Zm16.06-99V138.9h-16.5v16.5h16.5Zm-16.5,16.5V155.4h-16.5v16.5h16.5Zm16.5,0V155.4h-16.5v16.5h16.5Zm-16.5-33V122.4h-16.5v16.5h16.5Zm-16.5,16.5V138.9h-16.5v16.5h16.5Zm0-16.5V122.4h-16.5v16.5h16.5Zm33,16.5V138.9h-16.5v16.5h16.5Zm-16.5,16.5V155.4h-16.5v16.5h16.5Zm16.5,0V155.4h-16.5v16.5h16.5Zm30.69-.22v-16.5h-16.5v16.5h16.5Zm0,16.5v-16.5h-16.5v16.5h16.5Zm0,16.5v-16.5h-16.5v16.5h16.5Zm0,16.5v-16.5h-16.5v16.5h16.5Zm0,16.5v-16.5h-16.5v16.5h16.5Zm0,16.5v-16.5h-16.5v16.5h16.5Zm0,16.5v-16.5h-16.5v16.5h16.5Zm16.5-66v-16.5h-16.5v16.5h16.5Zm0-33v-16.5h-16.5v16.5h16.5Zm0,99v-16.5h-16.5v16.5h16.5Zm16.5-66v-16.5h-16.5v16.5h16.5Zm0-16.5v-16.5h-16.5v16.5h16.5Zm0-16.5v-16.5h-16.5v16.5h16.5Zm86.24,99v-16.5h-16.5v16.5h16.5Zm66-82.5v-16.5h-16.5v16.5h16.5Zm0-16.5v-16.5h-16.5v16.5h16.5Zm0,33v-16.5h-16.5v16.5h16.5Zm-49.5,0v-16.5h-16.5v16.5h16.5Zm16.5,0v-16.5h-16.5v16.5h16.5Zm16.5,0v-16.5h-16.5v16.5h16.5Zm33,33v-16.5h-16.5v16.5h16.5Zm-49.5,16.5v-16.5h-16.5v16.5h16.5Zm0,16.5v-16.5h-16.5v16.5h16.5Zm49.5-16.5v-16.5h-16.5v16.5h16.5Zm-82.5,0v-16.5h-16.5v16.5h16.5Zm16.5-16.5v-16.5h-16.5v16.5h16.5Zm33,33v-16.5h-16.5v16.5h16.5Zm16.5,0v-16.5h-16.5v16.5h16.5Zm-66-99v-16.5h-16.5v16.5h16.5Zm-16.5,99v-16.5h-16.5v16.5h16.5Zm-16.5,0v-16.5h-16.5v16.5h16.5Zm-16.5-16.5v-16.5h-16.5v16.5h16.5Zm0-16.5v-16.5h-16.5v16.5h16.5Zm16.5,0v-16.5h-16.5v16.5h16.5Zm16.5-16.5v-16.5h-16.5v16.5h16.5Zm16.5-16.5v-16.5h-16.5v16.5h16.5Zm0-16.5v-16.5h-16.5v16.5h16.5Zm-16.5-16.5v-16.5h-16.5v16.5h16.5Zm-16.5,0v-16.5h-16.5v16.5h16.5Zm-16.5,16.5v-16.5h-16.5v16.5h16.5Zm200.42-16.28V155.4h-16.5v16.5h16.5Zm-33,0V155.4h-16.5v16.5h16.5Zm16.5,0V155.4h-16.5v16.5h16.5Zm-33,0V155.4h-16.5v16.5h16.5Zm49.5,16.5V171.9h-16.5v16.5h16.5Zm0,16.5V188.4h-16.5v16.5h16.5Zm-33-66V122.4h-16.5v16.5h16.5Zm0,16.5V138.9h-16.5v16.5h16.5Zm0,33V171.9h-16.5v16.5h16.5Zm0,16.5V188.4h-16.5v16.5h16.5Zm16.5,0V188.4h-16.5v16.5h16.5Zm-66-33V155.4h-16.5v16.5h16.5Zm16.5,0V155.4h-16.5v16.5h16.5Z"/>
</svg>
